<?xml version="1.0" encoding="utf-8"?>
<!-- Generator: Adobe Illustrator 21.0.0, SVG Export Plug-In . SVG Version: 6.00 Build 0)  -->
<svg version="1.1" id="Layer_1" xmlns="http://www.w3.org/2000/svg" xmlns:xlink="http://www.w3.org/1999/xlink" x="0px" y="0px"
	 viewBox="0 0 2774.8 2765" style="enable-background:new 0 0 2774.8 2765;" xml:space="preserve">
<style type="text/css">
	.st0{fill:#F2EC33;stroke:#000000;stroke-miterlimit:10;}
	.st1{fill:#BCA1E2;stroke:#000000;stroke-miterlimit:10;}
	.st2{fill:none;stroke:#F40B0B;stroke-miterlimit:10;}
	.st3{fill:#4EDD19;stroke:#000000;stroke-miterlimit:10;}
	.st4{fill:#A1E5B1;stroke:#000000;stroke-miterlimit:10;}
	.st5{fill:none;stroke:#EA1515;stroke-miterlimit:10;}
	.st6{fill:#6197E5;stroke:#000000;stroke-miterlimit:10;}
	.st7{fill:#F2644C;stroke:#000000;stroke-miterlimit:10;}
	.st8{fill:none;stroke:#FF1A1A;stroke-linecap:round;stroke-miterlimit:10;}
	.st9{fill:none;stroke:#000000;stroke-linecap:round;stroke-miterlimit:10;}
</style>
<path class="st0" d="M904.1,1228c97,6.8,173.1,75.5,173.1,159.3c0,83.8-76.2,152.6-173.1,159.3"/>
<rect x="2390.4" y="1226.9" class="st1" width="106" height="319.8"/>
<rect x="2372.4" y="1227.2" transform="matrix(-1 -1.170216e-10 1.170216e-10 -1 4762.8389 2773.8872)" class="st2" width="18" height="319.5"/>
<rect x="2266.6" y="1226.9" class="st1" width="106" height="319.8"/>
<rect x="1894.6" y="1226.9" class="st1" width="106" height="319.8"/>
<rect x="2018.6" y="1226.6" class="st1" width="106" height="319.8"/>
<rect x="2000.6" y="1227" transform="matrix(-1 -1.162134e-10 1.162134e-10 -1 4019.1724 2773.4539)" class="st2" width="18" height="319.5"/>
<rect x="2142.6" y="1226.9" class="st1" width="106" height="319.8"/>
<rect x="2124.6" y="1227.2" transform="matrix(-1 -1.163142e-10 1.163142e-10 -1 4267.1724 2773.8872)" class="st2" width="18" height="319.5"/>
<rect x="2248.6" y="1227.2" transform="matrix(-1 -1.169208e-10 1.169208e-10 -1 4515.1724 2773.8872)" class="st2" width="18" height="319.5"/>
<rect x="2514.4" y="1226.6" class="st1" width="106" height="319.8"/>
<rect x="2496.4" y="1227" transform="matrix(-1 -1.171229e-10 1.171229e-10 -1 5010.8389 2773.4539)" class="st2" width="18" height="319.5"/>
<rect x="2638.4" y="1226.9" class="st3" width="106" height="319.8"/>
<rect x="2620.4" y="1227.2" transform="matrix(-1 -1.170216e-10 1.170216e-10 -1 5258.8389 2773.8872)" class="st2" width="18" height="319.5"/>
<rect x="2390.4" y="1554.9" class="st4" width="106" height="319.8"/>
<rect x="2372.4" y="1555.2" transform="matrix(-1 -1.161121e-10 1.161121e-10 -1 4762.8804 3429.9302)" class="st2" width="18" height="319.5"/>
<rect x="2266.6" y="1554.9" class="st3" width="106" height="319.8"/>
<rect x="1894.8" y="1554.5" class="st4" width="106" height="319.8"/>
<rect x="2018.6" y="1554.7" class="st4" width="106" height="319.8"/>
<rect x="2000.6" y="1555" transform="matrix(-1 -1.169208e-10 1.169208e-10 -1 4019.2136 3429.4968)" class="st2" width="18" height="319.5"/>
<rect x="2142.6" y="1554.9" class="st4" width="106" height="319.8"/>
<rect x="2124.6" y="1555.2" transform="matrix(-1 -1.169208e-10 1.169208e-10 -1 4267.2139 3429.9302)" class="st2" width="18" height="319.5"/>
<rect x="2248.6" y="1555.2" transform="matrix(-1 -1.163142e-10 1.163142e-10 -1 4515.2139 3429.9302)" class="st2" width="18" height="319.5"/>
<rect x="2514.4" y="1554.7" class="st4" width="106" height="319.8"/>
<rect x="2496.4" y="1555" transform="matrix(-1 -1.169208e-10 1.169208e-10 -1 5010.8804 3429.4968)" class="st2" width="18" height="319.5"/>
<rect x="2638.4" y="1554.9" class="st4" width="106" height="319.8"/>
<rect x="2620.4" y="1555.2" transform="matrix(-1 -1.164154e-10 1.164154e-10 -1 5258.8804 3429.9302)" class="st2" width="18" height="319.5"/>
<rect x="2390.2" y="899.6" class="st4" width="106" height="319.8"/>
<rect x="2372.2" y="899.9" transform="matrix(-1 -1.163142e-10 1.163142e-10 -1 4762.3706 2119.3201)" class="st2" width="18" height="319.5"/>
<rect x="2266.4" y="899.6" class="st1" width="106" height="319.8"/>
<rect x="2248.4" y="899.9" transform="matrix(-1 -1.163142e-10 1.163142e-10 -1 4514.7041 2119.3201)" class="st2" width="18" height="319.5"/>
<rect x="2514.2" y="899.4" class="st4" width="106" height="319.8"/>
<rect x="2496.2" y="899.7" transform="matrix(-1 -1.163648e-10 1.163648e-10 -1 5010.3706 2118.8865)" class="st2" width="18" height="319.5"/>
<rect x="2638.2" y="899.6" class="st4" width="106" height="319.8"/>
<rect x="2620.2" y="899.9" transform="matrix(-1 -1.162134e-10 1.162134e-10 -1 5258.3706 2119.3201)" class="st2" width="18" height="319.5"/>
<rect x="1894.4" y="899.7" class="st4" width="106" height="319.8"/>
<rect x="2018.4" y="899.5" class="st4" width="106" height="319.8"/>
<rect x="2000.4" y="899.8" transform="matrix(-1 -1.163648e-10 1.163648e-10 -1 4018.7136 2119.1001)" class="st2" width="18" height="319.5"/>
<rect x="2142.4" y="899.7" class="st4" width="106" height="319.8"/>
<rect x="2124.4" y="900" transform="matrix(-1 -1.162134e-10 1.162134e-10 -1 4266.7139 2119.5334)" class="st2" width="18" height="319.5"/>
<rect x="1358" y="257.3" transform="matrix(4.796969e-11 -1 1 4.796969e-11 474.9443 2256.7966)" class="st5" width="15.8" height="1267.2"/>
<rect x="1559.1" y="1889.9" class="st4" width="319.8" height="106"/>
<rect x="1559.4" y="2013.9" class="st4" width="319.8" height="106"/>
<rect x="1710.1" y="1845.2" transform="matrix(5.861184e-11 -1 1 5.861184e-11 -285.8191 3724.0176)" class="st2" width="18" height="319.5"/>
<rect x="1559.1" y="2137.9" class="st4" width="319.8" height="106"/>
<rect x="1709.9" y="1969.2" transform="matrix(5.861184e-11 -1 1 5.861184e-11 -410.0357 3847.8008)" class="st2" width="18" height="319.5"/>
<rect x="782.4" y="1554.6" class="st4" width="106" height="319.8"/>
<rect x="658.4" y="1554.8" class="st4" width="106" height="319.8"/>
<rect x="764.4" y="1554.8" class="st2" width="18" height="319.5"/>
<rect x="534.4" y="1554.6" class="st4" width="106" height="319.8"/>
<rect x="640.4" y="1554.6" class="st2" width="18" height="319.5"/>
<rect x="516.4" y="1554.6" class="st2" width="18" height="319.5"/>
<rect x="1231.8" y="2386" class="st6" width="319.8" height="106"/>
<rect x="1382.6" y="2217.3" transform="matrix(5.780360e-11 -1 1 5.780360e-11 -985.4399 3768.6006)" class="st2" width="18" height="319.5"/>
<rect x="1231.8" y="2262.2" class="st6" width="319.8" height="106"/>
<rect x="1231.8" y="1890.2" class="st6" width="319.8" height="106"/>
<rect x="1232.1" y="2014.2" class="st6" width="319.8" height="106"/>
<rect x="1382.8" y="1845.4" transform="matrix(5.780360e-11 -1 1 5.780360e-11 -613.39 3396.9839)" class="st2" width="18" height="319.5"/>
<rect x="1231.8" y="2138.2" class="st6" width="319.8" height="106"/>
<rect x="1382.6" y="1969.4" transform="matrix(5.861184e-11 -1 1 5.861184e-11 -737.6066 3520.7671)" class="st2" width="18" height="319.5"/>
<rect x="1382.6" y="2093.4" transform="matrix(5.780360e-11 -1 1 5.780360e-11 -861.6066 3644.7671)" class="st2" width="18" height="319.5"/>
<rect x="1232.1" y="2510" class="st6" width="319.8" height="106"/>
<rect x="1382.8" y="2341.3" transform="matrix(5.830898e-11 -1 1 5.830898e-11 -1109.2233 3892.8171)" class="st2" width="18" height="319.5"/>
<rect x="1231.8" y="2634" class="st3" width="319.8" height="106"/>
<rect x="1382.6" y="2465.3" transform="matrix(5.830898e-11 -1 1 5.830898e-11 -1233.4399 4016.6006)" class="st2" width="18" height="319.5"/>
<rect x="1382.6" y="2589.3" transform="matrix(5.841023e-11 -1 1 5.841023e-11 -1357.4399 4140.6006)" class="st2" width="18" height="319.5"/>
<rect x="903.9" y="2386" class="st4" width="319.8" height="106"/>
<rect x="1054.6" y="2217.3" transform="matrix(5.851148e-11 -1 1 5.851148e-11 -1313.4333 3440.6487)" class="st2" width="18" height="319.5"/>
<rect x="903.9" y="2262.2" class="st3" width="319.8" height="106"/>
<rect x="904.2" y="1890.4" class="st4" width="319.8" height="106"/>
<rect x="904.1" y="2014.2" class="st4" width="319.8" height="106"/>
<rect x="1054.8" y="1845.5" transform="matrix(5.841023e-11 -1 1 5.841023e-11 -941.3833 3069.032)" class="st2" width="18" height="319.5"/>
<rect x="903.9" y="2138.2" class="st4" width="319.8" height="106"/>
<rect x="1054.6" y="1969.5" transform="matrix(5.841023e-11 -1 1 5.841023e-11 -1065.6 3192.8152)" class="st2" width="18" height="319.5"/>
<rect x="1054.6" y="2093.5" transform="matrix(5.851148e-11 -1 1 5.851148e-11 -1189.6 3316.8152)" class="st2" width="18" height="319.5"/>
<rect x="904.1" y="2510" class="st4" width="319.8" height="106"/>
<rect x="1054.8" y="2341.3" transform="matrix(5.841023e-11 -1 1 5.841023e-11 -1437.2167 3564.8652)" class="st2" width="18" height="319.5"/>
<rect x="903.9" y="2634" class="st4" width="319.8" height="106"/>
<rect x="1054.6" y="2465.3" transform="matrix(5.841023e-11 -1 1 5.841023e-11 -1561.4333 3688.6487)" class="st2" width="18" height="319.5"/>
<rect x="1559.1" y="2385.8" class="st4" width="319.8" height="106"/>
<rect x="1709.8" y="2217" transform="matrix(5.861184e-11 -1 1 5.861184e-11 -657.971 4095.6013)" class="st2" width="18" height="319.5"/>
<rect x="1559.1" y="2262" class="st6" width="319.8" height="106"/>
<rect x="1709.8" y="2093.2" transform="matrix(5.861184e-11 -1 1 5.861184e-11 -534.1376 3971.7681)" class="st2" width="18" height="319.5"/>
<rect x="1559.3" y="2509.8" class="st4" width="319.8" height="106"/>
<rect x="1710" y="2341" transform="matrix(5.830898e-11 -1 1 5.830898e-11 -781.7543 4219.8179)" class="st2" width="18" height="319.5"/>
<rect x="1559.1" y="2633.8" class="st4" width="319.8" height="106"/>
<rect x="1709.8" y="2465" transform="matrix(5.861184e-11 -1 1 5.861184e-11 -905.971 4343.6011)" class="st2" width="18" height="319.5"/>
<rect x="1709.8" y="2589" transform="matrix(5.830898e-11 -1 1 5.830898e-11 -1029.9709 4467.6011)" class="st2" width="18" height="319.5"/>
<rect x="1231.4" y="280.9" class="st7" width="319.8" height="106"/>
<rect x="1382.5" y="236.1" transform="matrix(-1.754314e-10 1 -1 -1.754314e-10 1787.3693 -995.6469)" class="st2" width="18" height="319.5"/>
<rect x="1231.4" y="404.7" class="st7" width="319.8" height="106"/>
<rect x="1231.4" y="776.7" class="st7" width="319.8" height="106"/>
<rect x="1231.2" y="652.7" class="st7" width="319.8" height="106"/>
<rect x="1382.3" y="608" transform="matrix(-1.747244e-10 1 -1 -1.747244e-10 2158.9858 -623.5969)" class="st2" width="18" height="319.5"/>
<rect x="1231.4" y="528.7" class="st7" width="319.8" height="106"/>
<rect x="1382.5" y="484" transform="matrix(-1.755327e-10 1 -1 -1.755327e-10 2035.2026 -747.8136)" class="st2" width="18" height="319.5"/>
<rect x="1382.5" y="360" transform="matrix(-1.754314e-10 1 -1 -1.754314e-10 1911.2026 -871.8136)" class="st2" width="18" height="319.5"/>
<rect x="1231.2" y="156.9" class="st7" width="319.8" height="106"/>
<rect x="1382.3" y="112.1" transform="matrix(-1.747244e-10 1 -1 -1.747244e-10 1663.1526 -1119.4303)" class="st2" width="18" height="319.5"/>
<rect x="1231.4" y="32.9" class="st3" width="319.8" height="106"/>
<rect x="1382.5" y="-11.9" transform="matrix(-1.747244e-10 1 -1 -1.747244e-10 1539.3693 -1243.647)" class="st2" width="18" height="319.5"/>
<rect x="1559.4" y="280.8" class="st4" width="319.8" height="106"/>
<rect x="1710.5" y="236.1" transform="matrix(-1.750273e-10 1 -1 -1.750273e-10 2115.3213 -1323.6403)" class="st2" width="18" height="319.5"/>
<rect x="1559.4" y="404.7" class="st3" width="319.8" height="106"/>
<rect x="1559" y="776.5" class="st4" width="319.8" height="106"/>
<rect x="1559.2" y="652.7" class="st4" width="319.8" height="106"/>
<rect x="1710.3" y="607.9" transform="matrix(-1.755327e-10 1 -1 -1.755327e-10 2486.9377 -951.5903)" class="st2" width="18" height="319.5"/>
<rect x="1559.4" y="528.7" class="st4" width="319.8" height="106"/>
<rect x="1710.5" y="483.9" transform="matrix(-1.747244e-10 1 -1 -1.747244e-10 2363.1545 -1075.8069)" class="st2" width="18" height="319.5"/>
<rect x="1710.5" y="359.9" transform="matrix(-1.750273e-10 1 -1 -1.750273e-10 2239.1545 -1199.8069)" class="st2" width="18" height="319.5"/>
<rect x="1559.2" y="156.8" class="st4" width="319.8" height="106"/>
<rect x="1710.3" y="112.1" transform="matrix(-1.754314e-10 1 -1 -1.754314e-10 1991.1045 -1447.4236)" class="st2" width="18" height="319.5"/>
<rect x="1559.4" y="32.8" class="st4" width="319.8" height="106"/>
<rect x="1710.5" y="-11.9" transform="matrix(-1.755327e-10 1 -1 -1.755327e-10 1867.3212 -1571.6403)" class="st2" width="18" height="319.5"/>
<rect x="904.2" y="281.1" class="st4" width="319.8" height="106"/>
<rect x="1055.3" y="236.4" transform="matrix(-1.747244e-10 1 -1 -1.747244e-10 1460.3685 -668.1779)" class="st2" width="18" height="319.5"/>
<rect x="904.2" y="404.9" class="st7" width="319.8" height="106"/>
<rect x="1055.3" y="360.2" transform="matrix(-1.755327e-10 1 -1 -1.755327e-10 1584.2018 -544.3446)" class="st2" width="18" height="319.5"/>
<rect x="904" y="157.1" class="st4" width="319.8" height="106"/>
<rect x="1055.1" y="112.4" transform="matrix(-1.747244e-10 1 -1 -1.747244e-10 1336.1519 -791.9612)" class="st2" width="18" height="319.5"/>
<rect x="904.2" y="33.1" class="st4" width="319.8" height="106"/>
<rect x="1055.3" y="-11.6" transform="matrix(-1.754314e-10 1 -1 -1.754314e-10 1212.3685 -916.1779)" class="st2" width="18" height="319.5"/>
<rect x="904.2" y="776.9" class="st4" width="319.8" height="106"/>
<rect x="904" y="652.9" class="st4" width="319.8" height="106"/>
<rect x="1055.1" y="608.2" transform="matrix(-1.755327e-10 1 -1 -1.755327e-10 1832.0033 -296.1193)" class="st2" width="18" height="319.5"/>
<rect x="904.2" y="528.9" class="st4" width="319.8" height="106"/>
<rect x="1055.3" y="484.2" transform="matrix(-1.755327e-10 1 -1 -1.755327e-10 1708.22 -420.336)" class="st2" width="18" height="319.5"/>
<rect x="286.4" y="1227.4" class="st0" width="106" height="319.8"/>
<rect x="392.4" y="1227.4" class="st2" width="18" height="319.5"/>
<rect x="410.2" y="1227.4" class="st0" width="106" height="319.8"/>
<rect x="782.2" y="1227.4" class="st0" width="106" height="319.8"/>
<rect x="658.2" y="1227.6" class="st0" width="106" height="319.8"/>
<rect x="764.2" y="1227.6" class="st2" width="18" height="319.5"/>
<rect x="534.2" y="1227.4" class="st0" width="106" height="319.8"/>
<rect x="640.2" y="1227.4" class="st2" width="18" height="319.5"/>
<rect x="516.2" y="1227.4" class="st2" width="18" height="319.5"/>
<rect x="162.4" y="1227.6" class="st0" width="106" height="319.8"/>
<rect x="268.4" y="1227.6" class="st2" width="18" height="319.5"/>
<rect x="38.4" y="1227.4" class="st3" width="106" height="319.8"/>
<rect x="144.4" y="1227.4" class="st2" width="18" height="319.5"/>
<rect x="286.4" y="899.4" class="st4" width="106" height="319.8"/>
<rect x="392.4" y="899.4" class="st2" width="18" height="319.5"/>
<rect x="410.2" y="899.4" class="st3" width="106" height="319.8"/>
<rect x="782" y="899.8" class="st4" width="106" height="319.8"/>
<rect x="658.2" y="899.6" class="st4" width="106" height="319.8"/>
<rect x="764.2" y="899.6" class="st2" width="18" height="319.5"/>
<rect x="534.2" y="899.4" class="st4" width="106" height="319.8"/>
<rect x="640.2" y="899.4" class="st2" width="18" height="319.5"/>
<rect x="516.2" y="899.4" class="st2" width="18" height="319.5"/>
<rect x="162.4" y="899.6" class="st4" width="106" height="319.8"/>
<rect x="268.4" y="899.6" class="st2" width="18" height="319.5"/>
<rect x="38.4" y="899.4" class="st4" width="106" height="319.8"/>
<rect x="144.4" y="899.4" class="st2" width="18" height="319.5"/>
<rect x="286.6" y="1554.6" class="st4" width="106" height="319.8"/>
<rect x="392.6" y="1554.6" class="st2" width="18" height="319.5"/>
<rect x="410.5" y="1554.6" class="st0" width="106" height="319.8"/>
<rect x="516.5" y="1554.6" class="st2" width="18" height="319.5"/>
<rect x="162.6" y="1554.9" class="st4" width="106" height="319.8"/>
<rect x="268.6" y="1554.9" class="st2" width="18" height="319.5"/>
<rect x="38.6" y="1554.6" class="st4" width="106" height="319.8"/>
<rect x="144.6" y="1554.6" class="st2" width="18" height="319.5"/>
<rect x="1879" y="771.7" class="st5" width="15.8" height="1184.4"/>
<rect x="1394.4" y="1290.1" transform="matrix(4.486373e-11 -1 1 4.486373e-11 -479.9898 3284.5498)" class="st5" width="15.8" height="1184.4"/>
<path class="st6" d="M1231.9,1874.9c6.8-97,75.5-173.1,159.3-173.1c83.8,0,152.6,76.2,159.3,173.1"/>
<path class="st1" d="M1879.5,1554.5c-97-6.8-173.1-75.5-173.1-159.3c0-83.8,76.2-152.6,173.1-159.3"/>
<path class="st7" d="M1551.2,898.3c-6.8,97-75.5,173.1-159.3,173.1c-83.8,0-152.6-76.2-159.3-173.1"/>
<rect x="-341.6" y="2019.2" transform="matrix(2.445339e-11 -1 1 2.445339e-11 -1997.6045 2057.8633)" class="st8" width="743.5" height="17"/>
<rect x="38.6" y="1890.3" class="st9" width="848.8" height="849.5"/>
<path class="st0" d="M871.9,2723.7c-86.8,0-173.6-0.1-260.4-0.1c0-1.1,0-2.3,0-3.4c-1.1-59.9,47.4-250.5,258.2-259
	c0.8,0,1.7,0,2.5,0.1c0,87.5-0.1,175-0.1,262.4"/>
<path class="st0" d="M53.7,2722.8c0-87,0.1-173.9,0.1-260.9c1.1,0,2.2,0,3.4,0c59.8-1.1,250.1,47.5,258.6,258.6c0,0.8,0,1.7-0.1,2.5
	c-87.3,0-174.7-0.1-262-0.1"/>
<path class="st0" d="M872.8,1904.2c0,87-0.1,173.9-0.1,260.9c-1.1,0-2.2,0-3.4,0c-59.8,1.1-250.1-47.5-258.6-258.6
	c0-0.8,0-1.7,0.1-2.5c87.3,0,174.7,0.1,262,0.1"/>
<path class="st0" d="M54.7,1903.3c86.8,0,173.6,0.1,260.4,0.1c0,1.1,0,2.3,0,3.4c1.1,59.9-47.4,250.5-258.2,259
	c-0.8,0-1.7,0-2.5-0.1c0-87.5,0.1-175,0.1-262.4"/>
<rect x="800.9" y="2589.3" transform="matrix(5.841023e-11 -1 1 5.841023e-11 -1939.1 3558.9819)" class="st2" width="18" height="319.5"/>
<rect x="39.3" y="33.3" class="st9" width="848.8" height="849.5"/>
<path class="st7" d="M872.6,866.7c-86.8,0-173.6-0.1-260.4-0.1c0-1.1,0-2.3,0-3.4c-1.1-59.9,47.4-250.5,258.2-259
	c0.8,0,1.7,0,2.5,0.1c0,87.5-0.1,175-0.1,262.4"/>
<path class="st7" d="M54.4,865.8c0-87,0.1-173.9,0.1-260.9c1.1,0,2.2,0,3.4,0c59.8-1.1,250.1,47.5,258.6,258.6c0,0.8,0,1.7-0.1,2.5
	c-87.3,0-174.7-0.1-262-0.1"/>
<path class="st7" d="M873.5,47.2c0,87-0.1,173.9-0.1,260.9c-1.1,0-2.2,0-3.4,0c-59.8,1.1-250.1-47.5-258.6-258.6
	c0-0.8,0-1.7,0.1-2.5c87.3,0,174.7,0.1,262,0.1"/>
<path class="st7" d="M55.4,46.3c86.8,0,173.6,0.1,260.4,0.1c0,1.1,0,2.3,0,3.4c1.1,59.9-47.4,250.5-258.2,259c-0.8,0-1.7,0-2.5-0.1
	c0-87.5,0.1-175,0.1-262.4"/>
<rect x="888" y="769.4" class="st2" width="18" height="319.5"/>
<rect x="1895" y="33.7" class="st9" width="848.8" height="849.5"/>
<path class="st1" d="M2728.3,867.1c-86.8,0-173.6-0.1-260.4-0.1c0-1.1,0-2.3,0-3.4c-1.1-59.9,47.4-250.5,258.2-259
	c0.8,0,1.7,0,2.5,0.1c0,87.5-0.1,175-0.1,262.4"/>
<path class="st1" d="M1910.1,866.2c0-87,0.1-173.9,0.1-260.9c1.1,0,2.2,0,3.4,0c59.8-1.1,250.1,47.5,258.6,258.6
	c0,0.8,0,1.7-0.1,2.5c-87.3,0-174.7-0.1-262-0.1"/>
<path class="st1" d="M2729.2,47.7c0,87-0.1,173.9-0.1,260.9c-1.1,0-2.2,0-3.4,0c-59.8,1.1-250.1-47.5-258.6-258.6
	c0-0.8,0-1.7,0.1-2.5c87.3,0,174.7,0.1,262,0.1"/>
<path class="st1" d="M1911,46.7c86.8,0,173.6,0.1,260.4,0.1c0,1.1,0,2.3,0,3.4c1.1,59.9-47.4,250.5-258.2,259c-0.8,0-1.7,0-2.5-0.1
	c0-87.5,0.1-175,0.1-262.4"/>
<rect x="1894.6" y="1890.4" class="st9" width="848.8" height="849.5"/>
<path class="st6" d="M2727.8,2723.8c-86.8,0-173.6-0.1-260.4-0.1c0-1.1,0-2.3,0-3.4c-1.1-59.9,47.4-250.5,258.2-259
	c0.8,0,1.7,0,2.5,0.1c0,87.5-0.1,175-0.1,262.4"/>
<path class="st6" d="M1909.6,2722.9c0-87,0.1-173.9,0.1-260.9c1.1,0,2.2,0,3.4,0c59.8-1.1,250.1,47.5,258.6,258.6
	c0,0.8,0,1.7-0.1,2.5c-87.3,0-174.7-0.1-262-0.1"/>
<path class="st6" d="M2728.8,1904.3c0,87-0.1,173.9-0.1,260.9c-1.1,0-2.2,0-3.4,0c-59.8,1.1-250.1-47.5-258.6-258.6
	c0-0.8,0-1.7,0.1-2.5c87.3,0,174.7,0.1,262,0.1"/>
<path class="st6" d="M1910.6,1903.4c86.8,0,173.6,0.1,260.4,0.1c0,1.1,0,2.3,0,3.4c1.1,59.9-47.4,250.5-258.2,259
	c-0.8,0-1.7,0-2.5-0.1c0-87.5,0.1-175,0.1-262.4"/>
</svg>
