<?xml version="1.0" encoding="utf-8"?>
<!-- Generator: Adobe Illustrator 21.0.0, SVG Export Plug-In . SVG Version: 6.00 Build 0)  -->
<svg version="1.1" xmlns="http://www.w3.org/2000/svg" xmlns:xlink="http://www.w3.org/1999/xlink" x="0px" y="0px"
	 viewBox="0 0 189.7 340.3" style="enable-background:new 0 0 189.7 340.3;" xml:space="preserve">
<style type="text/css">
	.st0{fill:#E02D2D;stroke:#000000;stroke-miterlimit:10;}
	.st1{fill:#63080F;}
	.st2{fill:#F4738F;}
</style>
<g id="Fill">
	<path class="st0" d="M48.5,88c-2.2-3.7-11.8-20.2-7-41c4.6-19.9,19.7-32.5,32.3-38c11.9-5.2,23.3-4.9,28-4.8
		c5.2,0.2,11.2,0.4,18.3,3.3c14.6,5.9,21.9,18.1,25,23.3c1.5,2.5,4.8,8.1,6.8,15.8c5.3,20.8-4.1,39.2-7.5,45.3
		c0.5,0.3,1.2,0.8,2,1.5c2.3,1.8,8.1,6.5,11,14.3c3.1,8.2,1.1,15.7,0.5,17.8c-4.8,17-23.9,22.6-25.3,23c-0.5,3.2-0.8,7.9,0.1,13.4
		c0.7,4.4,2.1,8,3.3,10.7c0.4-0.1,0.8-0.1,1.2-0.2c0.3,0.2,0.6,0.5,1.1,0.9c2.6,2.4,2.9,4.8,4.4,7.3c0.8,1.2,1.5,1.9,4.3,4.3
		c5,4.2,7.6,6.2,11.8,9.4c7.6,5.6,12,12.6,13.7,15.3c2.7,4.3,7.3,13.1,7.9,26.5c0.2,0.3,0.4,0.6,0.8,1.1c2.4,3.8,3.8,8.3,4.3,14.8
		c1.2,16.6-2,27.5-2,27.5c-4.6,15.4-13.8,25-18.1,29.4c-32.6,33-86.5,25.7-92.9,24.8c-13.4-2-33.2-5-49-21.3
		C12,300.4,7.7,287.1,6,280.5c-4.5-17.7-0.8-31.9,0-34.8c1.3-4.9,3-8.8,4.4-11.5c0-0.7,0-1.8,0.1-3.1c0,0,0.8-10.6,7.3-21.8
		c9-15.6,27.3-24.9,29.8-26.1c0.4-0.9,0.8-1.8,1.3-2.7c2.4-4.3,5.5-7.3,8.2-9.3c0.3-0.4,0.5-0.8,0.8-1.2c4.2-7,3.1-15.3,1.6-21
		c-0.6-0.9-1.1-1.9-1.7-2.8c-0.8-0.1-1.8-0.3-3-0.7c-9.7-2.9-18.4-12.9-20-24.5c-1.7-11.8,4.1-23.7,14.7-30.5
		C49.1,89.8,48.8,88.9,48.5,88z"/>
</g>
<g id="Shadows">
	<path class="st1" d="M115.5,7.9c4.3,1.2,8.3,2.5,13.7,6.6c8.5,6.6,15.9,14.4,18.7,23.6c3.6,11.8-0.4,25.9-3.9,26.2
		c-1,0.1-1.9-1-2.5-1.8c-5.4-7.2-5.9-14-8.3-21.7c-1.7-5.5-4.5-13.8-9.7-19c-0.9-0.9-3.9-4.1-7.3-6.5c-2-1.4-9.4-5.8-12.9-7.2
		c-0.5-0.2-2.7-0.7-3.4-0.8c0.8-0.2,2.5-0.4,3.4-0.5C108,6.3,112.2,7,115.5,7.9z"/>
	<path class="st1" d="M144.5,91.3c-1.4,2.8-3.9,6.8-7.8,10.8c-7.5,7.7-15.9,10.8-21,12.7c-3.6,1.3-8.3,2.6-13.8,3.3
		c1.4,0.1,3.7,0.2,6.3-0.1c7.5-0.7,10.7-3.1,17.8-4.8c4.7-1.2,8.9-2.2,14.1-1.5c5.8,0.8,15,4.1,16.4,10.7c0.3,1.3,0.1,2.7,0.1,2.7
		c-0.1,1-0.3,1.7-0.5,2.4c-0.2,0.7-0.6,1.8-1.2,2.9c1.1-1.7,2.7-4.5,3.4-8.3c1.1-5.5-0.1-9.9-0.9-12.6
		C154.5,99.9,147.7,93.9,144.5,91.3z"/>
	<path class="st1" d="M137.6,174.9c0,0,0.9,1.3,1.6,2.8c1.9,3.8,1.9,7.4,1.8,8.6c-0.1,4.1-1.6,7-2.4,8.4c-1.4,2.6-2.8,4.1-5.6,6.9
		c-1.6,1.7-3.9,3.8-6.8,6.1c-0.1,0.1,2.6-2.2,6.6-4.6c5.3-3.1,6.5-2.4,8.5-4.6c3.2-3.6,2.8-8.7,2.7-10.2c-0.3-4.3-2.3-7.4-3.3-8.7
		C139.2,177.3,137.6,174.9,137.6,174.9z"/>
	<path class="st1" d="M180,240.2c0,2.8-0.1,6.7-1.2,11.3c-2.5,11.2-8.3,18.5-11.3,22.2c-9.5,11.6-20.6,16.7-30.2,21.2
		c-20.8,9.6-38.4,10.2-43,10.3c-8.8,0.2-16-0.8-21.2-1.8c2.7,0.7,7.3,1.7,13.1,2.4c36.2,4.1,63.2-12.7,78.6-22.2
		c3.5-2.2,8.2-5.3,11.9-11c5.7-8.7,5.6-17.9,5.5-20.4C182.1,247,181,242.8,180,240.2z"/>
	<path class="st2" d="M59,60c-0.7-6.8,3.3-13.8,9.8-15.8c8.1-2.4,17.6,4,18.5,12.8c0.9,9-7.5,17.2-16,16.3
		C64.8,72.5,59.7,66.6,59,60z"/>
	<path class="st2" d="M43.7,130.7c-0.8,1.2,4.8,6.6,9.8,10.2c3.8,2.7,8.9,6.2,16.2,7.3c7,1,14.6-0.3,14.8-2.2
		c0.1-1.2-3.4-2.5-10.3-5.2c-7.2-2.7-9.6-3.1-16.5-5.5C47.7,131.9,44.3,129.8,43.7,130.7z"/>
	<path class="st2" d="M39.5,246.5c-0.3,8.3,12.1,14.2,13.3,14.8c1.9,0.9,14,6.6,22,0.5c3.7-2.8,6.6-8.2,5-11.3
		c-0.8-1.5-2.2-1.8-9.8-3.5c-13-3-14.8-3.6-16.8-5.5c-2.3-2.3-2.5-4.4-4.8-4.8c-3.3-0.6-6.5,3.4-6.8,3.8
		C41.5,240.8,39.6,243.3,39.5,246.5z"/>
	<path class="st2" d="M15.3,239.7c1.1,5,3.3,12.4,8,20.3c2.4,4.1,8.1,13.4,19.3,20.7c11.2,7.2,25.9,11,27.7,8
		c0.8-1.4-1.2-4.1-2.3-5.3c-3.8-4-9.4-4-12.7-4.3c-14.6-1.6-25.4-16.1-31.5-24.3C21.4,251.4,18.1,246.4,15.3,239.7z"/>
	<path class="st2" d="M10.1,276.8c3.8,5.5,9.8,12.9,18.6,19.9c12.9,10.2,30.4,18.2,32.6,15.3c0.4-0.5,0.4-1.6-1.1-4.1
		c-0.9-0.3-2.3-0.7-4-1.4c-7.1-2.7-21.8-9.6-24.9-11.7C17.1,285.4,17.4,284.7,10.1,276.8z"/>
	<path class="st2" d="M56.5,208c-0.2,0.2,2.2,3.2,5.5,6.3c3.8,3.5,6.5,6,10.8,7.5c1.9,0.6,5,1.4,9.3,1c0.2-0.2,0.4-0.5,0.3-0.8
		c-0.1-0.6-1.1-0.8-1.6-0.9c-2.3-0.5-4.6-1-6.8-1.5C63.7,217.4,56.9,207.6,56.5,208z"/>
</g>
</svg>
